<svg width="24" height="24" viewBox="0 0 24 24" fill="none" xmlns="http://www.w3.org/2000/svg">
<rect x="0.5" y="0.5" width="23" height="23" rx="2" fill="white"/>
<rect x="0.5" y="0.5" width="23" height="23" rx="2" stroke="#8C8F94"/>
<path d="M13.1663 6.54834L6.88309 12.8027C6.75115 12.9321 6.65891 13.0966 6.61719 13.2767L5.95245 15.9241C5.92499 16.0304 5.92234 16.1417 5.9447 16.2492C5.96707 16.3568 6.01386 16.4577 6.08146 16.5443C6.14905 16.6309 6.23565 16.7008 6.33455 16.7486C6.43346 16.7964 6.54203 16.8208 6.65187 16.82C6.71147 16.8257 6.77147 16.8257 6.83107 16.82L9.47846 16.1553C9.65548 16.11 9.81714 16.0182 9.94667 15.8894L16.2299 9.58302L13.1663 6.54834Z" fill="#1E1E1E"/>
<path d="M17.6039 5.97053L16.7831 5.14972C16.48 4.861 16.0775 4.69995 15.6588 4.69995C15.2402 4.69995 14.8377 4.861 14.5346 5.14972L13.7773 5.90694L16.8409 8.97053L17.6039 8.2133C17.9004 7.91541 18.0669 7.51222 18.0669 7.09191C18.0669 6.67161 17.9004 6.26842 17.6039 5.97053Z" fill="#1E1E1E"/>
<rect x="5.92969" y="18" width="12.1387" height="1.3" fill="#1E1E1E"/>
</svg>
