<svg width="32" height="32" viewBox="0 0 32 32" fill="none" xmlns="http://www.w3.org/2000/svg">
<path d="M6.5 13.6C5.1 13.6 4 14.6 4 16C4 17.3 5 18.4 6.4 18.4C7.8 18.4 8.9 17.4 8.9 16C8.9 14.7 7.8 13.6 6.5 13.6ZM6.5 17.2C5.8 17.2 5.3 16.6 5.3 16C5.3 15.4 5.8 14.8 6.5 14.8C7.2 14.8 7.7 15.4 7.7 16C7.7 16.7 7.1 17.2 6.5 17.2Z" fill="#4649FF"/>
<path d="M27.1693 15.2H11.6239C11.2093 15.2 10.8984 15.6 10.8984 16C10.8984 16.4 11.313 16.8 11.6239 16.8H27.1693C27.5839 16.8 27.9984 16.4 27.9984 16C27.9984 15.6 27.5839 15.2 27.1693 15.2Z" fill="#4649FF"/>
</svg>
