<svg width="24" height="24" viewBox="0 0 24 24" fill="none" xmlns="http://www.w3.org/2000/svg">
<g clip-path="url(#clip0_5867_1402)">
<path d="M3 19.2998C4.29987 19.2998 5.40018 20.2998 5.40039 21.5996C5.40039 22.9996 4.3 24 3 24C1.70011 24 0.600694 23.1 0.600586 21.7002C0.600586 20.3002 1.70004 19.2999 3 19.2998ZM3 20.5C2.30005 20.5001 1.7998 21.1002 1.7998 21.7002C1.79992 22.3001 2.30013 22.9003 3 22.9004C3.59994 22.9004 4.20008 22.4001 4.2002 21.7002C4.2002 21.1002 3.7 20.5 3 20.5ZM22.7002 20.9004C23.0999 20.9005 23.4996 21.2997 23.5 21.5996C23.5 21.8996 23.1001 22.2997 22.7002 22.2998H7.7002C7.4002 22.2998 7 21.8996 7 21.5996C7.00028 21.2997 7.30038 20.9004 7.7002 20.9004H22.7002ZM3 12.9004C4.29999 12.9004 5.40038 14 5.40039 15.5C5.40039 16.8 4.4 17.7002 3 17.7002C1.60005 17.7001 0.600586 16.6998 0.600586 15.2998C0.600701 13.9 1.70011 12.9004 3 12.9004ZM3 14.0996C2.30014 14.0997 1.79993 14.6999 1.7998 15.2998C1.7998 15.8998 2.30005 16.4999 3 16.5C3.6 16.5 4.2002 15.8998 4.2002 15.2998C4.20007 14.6999 3.69991 14.0996 3 14.0996ZM22.7002 14.5C23.1 14.5002 23.4998 14.9998 23.5 15.2998C23.5 15.5998 23.1001 15.9999 22.7002 16H7.7002C7.30028 16 7.00013 15.5002 7 15.2002C7 14.9002 7.3002 14.5 7.7002 14.5H22.7002ZM3 6.40039C4.29993 6.40039 5.40027 7.4999 5.40039 8.7998C5.40039 10.1997 4.3002 11.2 2.90039 11.2002C1.50039 11.2002 0.5 10.0998 0.5 8.7998C0.500115 7.39992 1.60007 6.40039 3 6.40039ZM3 7.59961C2.30009 7.59961 1.79993 8.19988 1.7998 8.7998C1.7998 9.39981 2.3 10 3 10C3.6 10 4.2002 9.4998 4.2002 8.7998C4.20007 8.19988 3.69991 7.59961 3 7.59961ZM22.7002 8C23.1001 8.00013 23.4999 8.39993 23.5 8.7998C23.5 9.19974 23.1001 9.59948 22.7002 9.59961H7.7002C7.4002 9.59961 7 9.1998 7 8.7998C7.0001 8.39987 7.30026 8 7.7002 8H22.7002ZM3 0C4.3 0 5.40039 1.10039 5.40039 2.40039C5.40019 3.80006 4.30007 4.79962 2.90039 4.7998C1.50053 4.7998 0.5002 3.70022 0.5 2.40039C0.5 1.00039 1.6 0 3 0ZM3 1.2002C2.30008 1.2002 1.79991 1.69989 1.7998 2.2998C1.7998 2.8998 2.3 3.5 3 3.5C3.59984 3.5 4.19988 2.90031 4.2002 2.40039C4.2002 1.80039 3.7 1.2002 3 1.2002ZM22.7002 1.5C23.1001 1.50013 23.4999 1.89993 23.5 2.2998C23.5 2.69974 23.1001 3.09948 22.7002 3.09961H7.7002C7.30033 3.09961 7.0002 2.8002 7 2.40039C7 2.00039 7.3002 1.6 7.7002 1.5H22.7002Z" fill="#4649FF"/>
</g>
<defs>
<clipPath id="clip0_5867_1402">
<rect width="24" height="24" fill="white"/>
</clipPath>
</defs>
</svg>
