<svg width="24" height="24" viewBox="0 0 24 24" fill="none" xmlns="http://www.w3.org/2000/svg">
<path d="M11.9994 5.35962C12.2467 5.35962 12.4729 5.50026 12.5824 5.72192L14.2182 9.03638L17.8774 9.57153C18.122 9.60743 18.3255 9.77873 18.4018 10.0139C18.478 10.2491 18.4138 10.5073 18.2367 10.6799L15.5893 13.2581L16.2143 16.8997C16.2561 17.1435 16.1557 17.391 15.9555 17.5364C15.7554 17.6815 15.4898 17.7003 15.2709 17.5852L11.9994 15.8645L8.72795 17.5852C8.50902 17.7003 8.24354 17.6817 8.04338 17.5364C7.84319 17.391 7.74276 17.1435 7.78459 16.8997L8.40861 13.2571L5.76311 10.6799C5.5859 10.5073 5.52177 10.2492 5.59807 10.0139C5.6744 9.7787 5.87777 9.6073 6.12248 9.57153L9.77971 9.03638L11.4164 5.72192L11.4633 5.64282C11.5833 5.46751 11.7831 5.35968 11.9994 5.35962ZM10.7953 9.91821C10.7007 10.1098 10.5175 10.2428 10.3061 10.2737L7.61174 10.6672L9.56193 12.5657C9.71498 12.715 9.7846 12.9301 9.74846 13.1409L9.2885 15.8206L11.6967 14.5549C11.8861 14.4553 12.1128 14.4554 12.3022 14.5549L14.7094 15.8206L14.2504 13.1409C14.2143 12.93 14.2847 12.715 14.4379 12.5657L16.3862 10.6672L13.6928 10.2737C13.4813 10.2428 13.2981 10.1099 13.2035 9.91821L11.9994 7.47876L10.7953 9.91821Z" fill="#4649FF"/>
<path d="M21.7002 12C21.7002 6.64284 17.3572 2.2998 12 2.2998C6.64284 2.2998 2.2998 6.64284 2.2998 12C2.2998 17.3572 6.64284 21.7002 12 21.7002V23C5.92487 23 1 18.0751 1 12C1 5.92487 5.92487 1 12 1C18.0751 1 23 5.92487 23 12C23 18.0751 18.0751 23 12 23V21.7002C17.3572 21.7002 21.7002 17.3572 21.7002 12Z" fill="#4649FF"/>
</svg>
