<svg width="59" height="40" viewBox="0 0 59 40" fill="none" xmlns="http://www.w3.org/2000/svg">
<rect x="0.5" y="0.5" width="58" height="39" rx="1.5" fill="#EBEBFF"/>
<rect x="0.5" y="0.5" width="58" height="39" rx="1.5" stroke="#A8AAFF"/>
<path d="M34.1754 27.5H23.7193V26.6333H25.9415C26.5552 26.6333 27.0526 26.1359 27.0526 25.5222V8.7H25.6842C23.7895 8.72222 22.4912 9.52222 21.7895 11.7667L21.0175 14.3H20L20.1404 7.5H37.8246L38 14.3H36.9825L36.2105 11.7667C35.5322 9.52222 34.2222 8.72222 32.2807 8.7H30.807V25.5222C30.807 26.1359 31.3045 26.6333 31.9181 26.6333H34.1754V27.5Z" fill="#4649FF"/>
<path d="M19.25 31L36.25 31V33H19.25V31Z" fill="#4649FF"/>
<path d="M38.75 32L36.125 34.1651V29.8349L38.75 32Z" fill="#4649FF"/>
</svg>
