<svg width="59" height="40" viewBox="0 0 59 40" fill="none" xmlns="http://www.w3.org/2000/svg">
<rect x="0.5" y="0.5" width="58" height="39" rx="1.5" fill="white"/>
<rect x="0.5" y="0.5" width="58" height="39" rx="1.5" stroke="#DDDDDD"/>
<path d="M39 14.8246L39 25.2807L38.1333 25.2807L38.1333 23.0585C38.1333 22.4448 37.6359 21.9474 37.0222 21.9474L20.2 21.9474L20.2 23.3158C20.2222 25.2105 21.0222 26.5088 23.2667 27.2105L25.8 27.9825L25.8 29L19 28.8596L19 11.1754L25.8 11L25.8 12.0175L23.2667 12.7895C21.0222 13.4678 20.2222 14.7778 20.2 16.7193L20.2 18.193L37.0222 18.193C37.6359 18.193 38.1333 17.6955 38.1333 17.0819L38.1333 14.8246L39 14.8246Z" fill="#4649FF"/>
<path d="M42.5 29.75L42.5 12.75L44.5 12.75L44.5 29.75L42.5 29.75Z" fill="#4649FF"/>
<path d="M43.5 10.25L45.6651 12.875L41.3349 12.875L43.5 10.25Z" fill="#4649FF"/>
</svg>
