<svg width="59" height="40" viewBox="0 0 59 40" fill="none" xmlns="http://www.w3.org/2000/svg">
<rect x="0.5" y="0.5" width="58" height="39" rx="1.5" fill="white"/>
<rect x="0.5" y="0.5" width="58" height="39" rx="1.5" stroke="#DDDDDD"/>
<path d="M20.5 10.25L20.5 27.25L18.5 27.25L18.5 10.25L20.5 10.25Z" fill="#4649FF"/>
<path d="M19.5 29.75L17.3349 27.125L21.6651 27.125L19.5 29.75Z" fill="#4649FF"/>
<path d="M24 25.1754L24 14.7193L24.8667 14.7193L24.8667 16.9415C24.8667 17.5552 25.3641 18.0526 25.9778 18.0526L42.8 18.0526L42.8 16.6842C42.7778 14.7895 41.9778 13.4912 39.7333 12.7895L37.2 12.0175L37.2 11L44 11.1404L44 28.8246L37.2 29L37.2 27.9825L39.7333 27.2105C41.9778 26.5322 42.7778 25.2222 42.8 23.2807L42.8 21.807L25.9778 21.807C25.3641 21.807 24.8667 22.3045 24.8667 22.9181L24.8667 25.1754L24 25.1754Z" fill="#4649FF"/>
</svg>
