<svg width="16" height="13" viewBox="0 0 16 13" fill="none" xmlns="http://www.w3.org/2000/svg">
<path d="M15.1667 2.4375C15.1667 1.98877 14.8029 1.625 14.3542 1.625H6.90297C6.56835 0.678281 5.66547 0 4.60417 0C3.54286 0 2.63998 0.678281 2.30537 1.625H0.8125C0.363769 1.625 0 1.98877 0 2.4375C0 2.88623 0.363768 3.25 0.8125 3.25H2.30537C2.63998 4.19672 3.54286 4.875 4.60417 4.875C5.66547 4.875 6.56835 4.19672 6.90297 3.25H14.3542C14.8029 3.25 15.1667 2.88623 15.1667 2.4375Z" fill="#2F2F2F"/>
<path d="M15.1667 10.5625C15.1667 10.1138 14.8029 9.75 14.3542 9.75H12.8613C12.5267 8.80328 11.6238 8.125 10.5625 8.125C9.5012 8.125 8.59832 8.80328 8.2637 9.75H0.8125C0.363769 9.75 0 10.1138 0 10.5625C0 11.0112 0.363768 11.375 0.8125 11.375H8.2637C8.59832 12.3217 9.5012 13 10.5625 13C11.6238 13 12.5267 12.3217 12.8613 11.375H14.3542C14.8029 11.375 15.1667 11.0112 15.1667 10.5625Z" fill="#2F2F2F"/>
</svg>
